<?xml version="1.0" encoding="UTF-8" standalone="no"?>
<svg
   xmlns:dc="http://purl.org/dc/elements/1.1/"
   xmlns:cc="http://creativecommons.org/ns#"
   xmlns:rdf="http://www.w3.org/1999/02/22-rdf-syntax-ns#"
   xmlns:svg="http://www.w3.org/2000/svg"
   xmlns="http://www.w3.org/2000/svg"
   id="svg8"
   version="1.1"
   viewBox="0 0 23.999999 24"
   height="24"
   width="24"
   preserveAspectRatio="xMidYMid">
  <metadata
     id="metadata12">
    <rdf:RDF>
      <cc:Work
         rdf:about="">
        <dc:format>image/svg+xml</dc:format>
        <dc:type
           rdf:resource="http://purl.org/dc/dcmitype/StillImage" />
        <dc:title></dc:title>
      </cc:Work>
    </rdf:RDF>
  </metadata>
  <defs
     id="defs4">
    <style
       id="style2">
      .cls-1 {
        fill: #000;
        fill-rule: evenodd;
      }
    </style>
  </defs>
  <path
     style="stroke-width:0.642033"
     id="path6"
     class="cls-1"
     d="m 23.478928,16.521355 c -0.398061,2.916758 -1.879875,3.334081 -3.857981,3.384801 -1.441366,0.03595 -2.884658,0 -4.326023,0 -0.03917,-0.4231 -0.07833,-0.8462 -0.116851,-1.268658 0.895637,0 1.793201,0.03339 2.688838,0 1.833006,-0.07127 2.62977,-0.760168 2.68948,-2.855766 L 20.67324,11.657307 C 20.7368,9.3934959 20.885112,6.9345061 18.451803,6.4754517 16.695199,6.1441621 14.866044,6.6166999 13.073487,6.6866812 12.710096,6.7508822 12.360829,6.8253602 12.02633,6.9139614 l 1.397707,1.0420207 -1.137041,1.057429 h 7.099609 v 1.3745949 h -4.208532 v 1.586466 h 4.208532 v 1.163364 h -4.208532 v 2.740201 c 0.659369,-0.15152 1.318737,-0.308819 1.987737,-0.41347 -0.234343,-0.353119 -0.468043,-0.705596 -0.701743,-1.05743 0.545087,-0.211871 1.090173,-0.4231 1.636544,-0.634971 1.285994,0.774935 1.792558,1.833648 1.520336,3.172289 -0.507207,0.423742 -1.013772,0.846842 -1.520336,1.2693 -0.272865,-0.458412 -0.546371,-0.916824 -0.818593,-1.374594 -7.7557677,2.748547 -10.9909759,1.833007 -9.7036982,-2.74983 h 2.8056872 c 0,1.868318 0.376232,2.166864 1.403486,2.221437 0.03917,0.0019 0.07768,0.0019 0.116851,0.0032 V 13.137836 H 7.69517 v -1.163364 h 4.209174 V 10.388006 H 11.08575 V 10.131834 L 9.3317141,11.763242 7.8120202,11.022977 10.742262,7.3460499 C 9.4652571,7.8770115 8.4514858,8.6461684 7.69517,9.6483832 7.5783198,9.8942822 7.4614697,10.141465 7.3446195,10.388006 6.6049967,9.8596117 5.8634477,9.330576 5.1225407,8.8021826 6.3314903,7.0038461 7.5397978,5.2061509 8.7474633,3.4090988 9.7605927,3.7262635 10.773079,4.0434278 11.787493,4.3605926 11.55315,4.888987 11.320093,5.4180227 11.08575,5.9464161 15.890731,3.8604485 23.323556,3.6158336 23.712628,8.3790824 c 0.248467,3.0387456 0.114925,5.5940406 -0.2337,8.1422726 z M 4.2461646,7.6388172 c -1.1916147,0 -2.1636538,-0.8783018 -2.1636538,-1.9562767 0,-1.0779748 0.9720391,-1.956277 2.1636538,-1.956277 1.1909726,0 2.1623697,0.8783022 2.1623697,1.956277 0,1.0779749 -0.9713971,1.9562767 -2.1623697,1.9562767 z M 1.0308595,9.8596117 C 1.5374241,9.2952642 2.0446308,8.7309167 2.5511955,8.1672106 6.7199208,10.563281 7.1834691,12.628062 5.7074335,15.358632 4.6833896,17.253273 4.2275456,18.68565 3.4859966,20.117386 2.3560171,19.305855 1.2253957,18.495608 0.0960583,17.685362 1.3428879,16.733868 2.7598564,15.938388 3.8371891,14.829595 5.8281358,12.778297 3.6099091,11.196968 1.0308595,9.8596117 Z" />
</svg>
